<svg width="510" height="378" viewBox="0 0 510 378" fill="none" xmlns="http://www.w3.org/2000/svg">
<path d="M322.132 200L291.825 147.333C291.825 128.111 279.946 115.778 265.515 115.778C255.523 115.778 246.864 121.333 242.424 129.556C246.087 127.444 250.417 126.333 254.968 126.333C269.4 126.333 281.168 138.111 281.168 152.556C281.168 167.111 269.511 179 254.968 179H291.603V200H197.13C194.466 200 191.69 199 189.692 196.889C187.721 194.914 186.613 192.236 186.613 189.444C186.613 186.653 187.721 183.975 189.692 182L195.243 176.444C191.468 174.778 188.36 172.222 185.251 169.556C182.809 175.111 177.258 179 170.82 179C166.624 179 162.6 177.332 159.633 174.363C156.667 171.393 155 167.366 155 163.167C155 158.967 156.667 154.94 159.633 151.971C162.6 149.001 166.624 147.333 170.82 147.333L176.037 148.222V126.333C176.023 119.413 177.374 112.558 180.013 106.161C182.652 99.7649 186.528 93.9532 191.417 89.0597C196.306 84.1662 202.113 80.2874 208.504 77.6458C214.894 75.0043 221.744 73.652 228.658 73.6667H228.88C252.415 73.7778 270.732 83 270.732 68.4444C270.732 58.1111 272.953 54 276.727 48.2222C268.623 44.4444 259.409 42.1111 249.751 42.1111C243.867 42.1111 239.204 37.4444 239.204 31.5556C239.204 26.7778 242.313 22.7778 246.642 21.4444L239.204 21C233.432 21 228.658 16.3333 228.658 10.5556C228.658 4.66667 233.432 0 239.204 0H249.751C273.064 0 293.49 12.7778 304.481 31.6667L307.589 31.5556C315.471 31.5556 322.798 34.1111 328.793 38.3333L333.788 42.5556C357.878 64.2222 354.881 78.8889 354.881 79C354.881 93.2222 343.113 104.889 328.793 104.889L323.353 104.333V105.222C323.353 117.556 318.024 128.556 309.698 136.333L346.444 200H322.132ZM323.353 52.6667C317.469 52.6667 312.807 57.3333 312.807 63.1111C312.807 69 317.469 73.6667 323.353 73.6667C329.126 73.6667 333.899 69 333.899 63.1111C333.899 57.3333 329.126 52.6667 323.353 52.6667Z" fill="url(#paint0_linear_629_7)"/>
<path d="M88.7109 279.48L62.4023 280.184C62.1289 278.309 61.3867 276.648 60.1758 275.203C58.9648 273.719 57.3828 272.566 55.4297 271.746C53.5156 270.887 51.2891 270.457 48.75 270.457C45.4297 270.457 42.5977 271.121 40.2539 272.449C37.9492 273.777 36.8164 275.574 36.8555 277.84C36.8164 279.598 37.5195 281.121 38.9648 282.41C40.4492 283.699 43.0859 284.734 46.875 285.516L64.2188 288.797C73.2031 290.516 79.8828 293.367 84.2578 297.352C88.6719 301.336 90.8984 306.609 90.9375 313.172C90.8984 319.344 89.0625 324.715 85.4297 329.285C81.8359 333.855 76.9141 337.41 70.6641 339.949C64.4141 342.449 57.2656 343.699 49.2187 343.699C36.3672 343.699 26.2305 341.062 18.8086 335.789C11.4258 330.477 7.20703 323.367 6.15234 314.461L34.4531 313.758C35.0781 317.039 36.6992 319.539 39.3164 321.258C41.9336 322.977 45.2734 323.836 49.3359 323.836C53.0078 323.836 55.9961 323.152 58.3008 321.785C60.6055 320.418 61.7773 318.602 61.8164 316.336C61.7773 314.305 60.8789 312.684 59.1211 311.473C57.3633 310.223 54.6094 309.246 50.8594 308.543L35.1563 305.555C26.1328 303.914 19.4141 300.887 15 296.473C10.5859 292.02 8.39844 286.355 8.4375 279.48C8.39844 273.465 10 268.328 13.2422 264.07C16.4844 259.773 21.0938 256.492 27.0703 254.227C33.0469 251.961 40.0977 250.828 48.2227 250.828C60.4102 250.828 70.0195 253.387 77.0508 258.504C84.082 263.582 87.9688 270.574 88.7109 279.48ZM105.044 342V252H133.696V342H105.044ZM119.399 241.512C115.376 241.512 111.919 240.184 109.028 237.527C106.138 234.832 104.692 231.59 104.692 227.801C104.692 224.051 106.138 220.848 109.028 218.191C111.919 215.496 115.376 214.148 119.399 214.148C123.462 214.148 126.919 215.496 129.771 218.191C132.661 220.848 134.106 224.051 134.106 227.801C134.106 231.59 132.661 234.832 129.771 237.527C126.919 240.184 123.462 241.512 119.399 241.512ZM193.887 377.625C185.332 377.625 178.008 376.434 171.914 374.051C165.82 371.668 161.035 368.406 157.559 364.266C154.082 360.125 151.992 355.438 151.289 350.203L178.418 348.68C178.926 350.516 179.863 352.117 181.23 353.484C182.637 354.852 184.453 355.906 186.68 356.648C188.945 357.391 191.602 357.762 194.648 357.762C199.453 357.762 203.418 356.59 206.543 354.246C209.707 351.941 211.289 347.898 211.289 342.117V326.297H210.293C209.16 329.07 207.441 331.551 205.137 333.738C202.832 335.926 199.961 337.645 196.523 338.895C193.125 340.145 189.219 340.77 184.805 340.77C178.242 340.77 172.227 339.246 166.758 336.199C161.328 333.113 156.973 328.348 153.691 321.902C150.449 315.418 148.828 307.078 148.828 296.883C148.828 286.375 150.508 277.723 153.867 270.926C157.227 264.09 161.621 259.031 167.051 255.75C172.52 252.469 178.398 250.828 184.688 250.828C189.414 250.828 193.457 251.648 196.816 253.289C200.215 254.891 203.008 256.961 205.195 259.5C207.383 262.039 209.043 264.676 210.176 267.41H210.996V252H239.531V342.352C239.531 349.969 237.617 356.395 233.789 361.629C229.961 366.863 224.609 370.828 217.734 373.523C210.859 376.258 202.91 377.625 193.887 377.625ZM194.766 319.91C198.242 319.91 201.211 318.992 203.672 317.156C206.133 315.32 208.027 312.684 209.355 309.246C210.684 305.809 211.348 301.687 211.348 296.883C211.348 292 210.684 287.801 209.355 284.285C208.066 280.73 206.172 277.996 203.672 276.082C201.211 274.168 198.242 273.211 194.766 273.211C191.211 273.211 188.203 274.187 185.742 276.141C183.281 278.094 181.406 280.848 180.117 284.402C178.867 287.918 178.242 292.078 178.242 296.883C178.242 301.687 178.887 305.809 180.176 309.246C181.465 312.684 183.32 315.32 185.742 317.156C188.203 318.992 191.211 319.91 194.766 319.91ZM345.103 252L314.224 342H281.411L250.591 252H280.767L297.349 313.992H298.286L314.927 252H345.103ZM395.259 343.699C385.845 343.699 377.72 341.844 370.884 338.133C364.087 334.383 358.853 329.051 355.181 322.137C351.548 315.184 349.731 306.922 349.731 297.352C349.731 288.055 351.567 279.93 355.239 272.977C358.911 265.984 364.087 260.555 370.767 256.687C377.446 252.781 385.317 250.828 394.38 250.828C400.786 250.828 406.646 251.824 411.958 253.816C417.271 255.809 421.86 258.758 425.728 262.664C429.595 266.57 432.603 271.395 434.751 277.137C436.899 282.84 437.974 289.383 437.974 296.766V303.914H359.751V287.273H411.313C411.274 284.227 410.552 281.512 409.146 279.129C407.739 276.746 405.806 274.891 403.345 273.562C400.923 272.195 398.13 271.512 394.966 271.512C391.763 271.512 388.892 272.234 386.353 273.68C383.813 275.086 381.802 277.02 380.317 279.48C378.833 281.902 378.052 284.656 377.974 287.742V304.676C377.974 308.348 378.696 311.57 380.142 314.344C381.587 317.078 383.638 319.207 386.294 320.73C388.95 322.254 392.114 323.016 395.786 323.016C398.325 323.016 400.63 322.664 402.7 321.961C404.771 321.258 406.548 320.223 408.032 318.855C409.517 317.488 410.63 315.809 411.372 313.816L437.681 314.578C436.587 320.477 434.185 325.613 430.474 329.988C426.802 334.324 421.978 337.703 416.001 340.125C410.024 342.508 403.11 343.699 395.259 343.699ZM503.408 252V273.094H446.631V252H503.408ZM458.525 230.437H487.178V313.699C487.178 315.457 487.451 316.883 487.998 317.977C488.584 319.031 489.424 319.793 490.518 320.262C491.611 320.691 492.92 320.906 494.443 320.906C495.537 320.906 496.689 320.809 497.9 320.613C499.15 320.379 500.088 320.184 500.713 320.027L505.049 340.711C503.682 341.102 501.748 341.59 499.248 342.176C496.787 342.762 493.838 343.133 490.4 343.289C483.682 343.602 477.92 342.82 473.115 340.945C468.35 339.031 464.697 336.062 462.158 332.039C459.658 328.016 458.447 322.957 458.525 316.863V230.437Z" fill="url(#paint1_linear_629_7)"/>
<defs>
<linearGradient id="paint0_linear_629_7" x1="255" y1="0" x2="255" y2="200" gradientUnits="userSpaceOnUse">
<stop stop-color="#10D48E"/>
<stop offset="1" stop-color="#0FB479"/>
</linearGradient>
<linearGradient id="paint1_linear_629_7" x1="14.5858" y1="306.953" x2="510" y2="309.481" gradientUnits="userSpaceOnUse">
<stop stop-color="#0FB479"/>
<stop offset="1" stop-color="#10D48E"/>
</linearGradient>
</defs>
</svg>
